<mxfile host="Electron" agent="Mozilla/5.0 (Windows NT 10.0; Win64; x64) AppleWebKit/537.36 (KHTML, like Gecko) draw.io/26.0.4 Chrome/128.0.6613.186 Electron/32.2.5 Safari/537.36" version="26.0.4">
  <diagram name="Страница — 1" id="D3_QxZ3O9GNO2Xm6y1k_">
    <mxGraphModel dx="1219" dy="713" grid="1" gridSize="10" guides="1" tooltips="1" connect="1" arrows="1" fold="1" page="1" pageScale="1" pageWidth="827" pageHeight="1169" math="0" shadow="0">
      <root>
        <mxCell id="0" />
        <mxCell id="1" parent="0" />
        <mxCell id="-15vU3JQ9ALBtdVmYqs8-1" value="Процесс покупки товаров и вручения подарка" style="swimlane;html=1;childLayout=stackLayout;resizeParent=1;resizeParentMax=0;horizontal=1;startSize=20;horizontalStack=0;whiteSpace=wrap;" parent="1" vertex="1">
          <mxGeometry x="305" y="130" width="5170" height="1070" as="geometry" />
        </mxCell>
        <mxCell id="-15vU3JQ9ALBtdVmYqs8-2" value="Клиент" style="swimlane;html=1;startSize=20;horizontal=0;" parent="-15vU3JQ9ALBtdVmYqs8-1" vertex="1">
          <mxGeometry y="20" width="5170" height="210" as="geometry" />
        </mxCell>
        <mxCell id="LRNG2-hjTM81aMbg7SDK-5" style="edgeStyle=orthogonalEdgeStyle;rounded=0;orthogonalLoop=1;jettySize=auto;html=1;" parent="-15vU3JQ9ALBtdVmYqs8-2" source="-15vU3JQ9ALBtdVmYqs8-14" target="-15vU3JQ9ALBtdVmYqs8-10" edge="1">
          <mxGeometry relative="1" as="geometry">
            <mxPoint x="280" y="75" as="targetPoint" />
          </mxGeometry>
        </mxCell>
        <mxCell id="-15vU3JQ9ALBtdVmYqs8-14" value="" style="points=[[0.145,0.145,0],[0.5,0,0],[0.855,0.145,0],[1,0.5,0],[0.855,0.855,0],[0.5,1,0],[0.145,0.855,0],[0,0.5,0]];shape=mxgraph.bpmn.event;html=1;verticalLabelPosition=bottom;labelBackgroundColor=#ffffff;verticalAlign=top;align=center;perimeter=ellipsePerimeter;outlineConnect=0;aspect=fixed;outline=standard;symbol=general;fillColor=#cdeb8b;strokeColor=#36393d;" parent="-15vU3JQ9ALBtdVmYqs8-2" vertex="1">
          <mxGeometry x="110" y="65" width="50" height="50" as="geometry" />
        </mxCell>
        <mxCell id="-15vU3JQ9ALBtdVmYqs8-15" value="Зайти в магазин&lt;div&gt;либо&lt;/div&gt;&lt;div&gt;оформить заказ через сайт&lt;/div&gt;" style="text;html=1;align=center;verticalAlign=middle;resizable=0;points=[];autosize=1;strokeColor=none;fillColor=none;" parent="-15vU3JQ9ALBtdVmYqs8-2" vertex="1">
          <mxGeometry x="45" y="119" width="180" height="60" as="geometry" />
        </mxCell>
        <mxCell id="-15vU3JQ9ALBtdVmYqs8-10" value="Клиент, вступивший в программу лояльности ранее, совершает покупку товаров" style="points=[[0.25,0,0],[0.5,0,0],[0.75,0,0],[1,0.25,0],[1,0.5,0],[1,0.75,0],[0.75,1,0],[0.5,1,0],[0.25,1,0],[0,0.75,0],[0,0.5,0],[0,0.25,0]];shape=mxgraph.bpmn.task;whiteSpace=wrap;rectStyle=rounded;size=10;html=1;container=1;expand=0;collapsible=0;taskMarker=abstract;fillColor=#cce5ff;strokeColor=#36393d;" parent="-15vU3JQ9ALBtdVmYqs8-2" vertex="1">
          <mxGeometry x="288" y="50" width="120" height="80" as="geometry" />
        </mxCell>
        <mxCell id="-15vU3JQ9ALBtdVmYqs8-27" value="Покинуть магазин&lt;div&gt;или&lt;/div&gt;&lt;div&gt;выйти из сайта&lt;/div&gt;" style="text;html=1;align=center;verticalAlign=middle;resizable=0;points=[];autosize=1;strokeColor=none;fillColor=none;" parent="-15vU3JQ9ALBtdVmYqs8-2" vertex="1">
          <mxGeometry x="1789" y="119.5" width="120" height="60" as="geometry" />
        </mxCell>
        <mxCell id="-15vU3JQ9ALBtdVmYqs8-26" value="" style="points=[[0.145,0.145,0],[0.5,0,0],[0.855,0.145,0],[1,0.5,0],[0.855,0.855,0],[0.5,1,0],[0.145,0.855,0],[0,0.5,0]];shape=mxgraph.bpmn.event;html=1;verticalLabelPosition=bottom;labelBackgroundColor=#ffffff;verticalAlign=top;align=center;perimeter=ellipsePerimeter;outlineConnect=0;aspect=fixed;outline=end;symbol=terminate2;fillColor=#ffcccc;strokeColor=#36393d;" parent="-15vU3JQ9ALBtdVmYqs8-2" vertex="1">
          <mxGeometry x="1824" y="61.5" width="50" height="50" as="geometry" />
        </mxCell>
        <mxCell id="-15vU3JQ9ALBtdVmYqs8-37" value="" style="points=[[0.145,0.145,0],[0.5,0,0],[0.855,0.145,0],[1,0.5,0],[0.855,0.855,0],[0.5,1,0],[0.145,0.855,0],[0,0.5,0]];shape=mxgraph.bpmn.event;html=1;verticalLabelPosition=bottom;labelBackgroundColor=#ffffff;verticalAlign=top;align=center;perimeter=ellipsePerimeter;outlineConnect=0;aspect=fixed;outline=end;symbol=terminate2;fillColor=#ffcccc;strokeColor=#36393d;" parent="-15vU3JQ9ALBtdVmYqs8-2" vertex="1">
          <mxGeometry x="4215" y="65" width="50" height="50" as="geometry" />
        </mxCell>
        <mxCell id="-15vU3JQ9ALBtdVmYqs8-38" value="Покинуть магазин" style="text;html=1;align=center;verticalAlign=middle;resizable=0;points=[];autosize=1;strokeColor=none;fillColor=none;" parent="-15vU3JQ9ALBtdVmYqs8-2" vertex="1">
          <mxGeometry x="4183" y="134.5" width="120" height="30" as="geometry" />
        </mxCell>
        <mxCell id="sC0kVVaJWofNKM2OYiN2-81" value="" style="points=[[0.145,0.145,0],[0.5,0,0],[0.855,0.145,0],[1,0.5,0],[0.855,0.855,0],[0.5,1,0],[0.145,0.855,0],[0,0.5,0]];shape=mxgraph.bpmn.event;html=1;verticalLabelPosition=bottom;labelBackgroundColor=#ffffff;verticalAlign=top;align=center;perimeter=ellipsePerimeter;outlineConnect=0;aspect=fixed;outline=end;symbol=message;fillColor=#ffcccc;strokeColor=#36393d;" parent="-15vU3JQ9ALBtdVmYqs8-2" vertex="1">
          <mxGeometry x="4593" y="64.75" width="50" height="50" as="geometry" />
        </mxCell>
        <mxCell id="sC0kVVaJWofNKM2OYiN2-85" value="" style="points=[[0.145,0.145,0],[0.5,0,0],[0.855,0.145,0],[1,0.5,0],[0.855,0.855,0],[0.5,1,0],[0.145,0.855,0],[0,0.5,0]];shape=mxgraph.bpmn.event;html=1;verticalLabelPosition=bottom;labelBackgroundColor=#ffffff;verticalAlign=top;align=center;perimeter=ellipsePerimeter;outlineConnect=0;aspect=fixed;outline=end;symbol=terminate2;fillColor=#ffcccc;strokeColor=#36393d;" parent="-15vU3JQ9ALBtdVmYqs8-2" vertex="1">
          <mxGeometry x="4884" y="65.5" width="50" height="50" as="geometry" />
        </mxCell>
        <mxCell id="qREnHcIWzKFSj_NXQFuH-2" value="Поток сообщений" style="text;html=1;align=center;verticalAlign=middle;resizable=0;points=[];autosize=1;strokeColor=none;fillColor=none;" parent="-15vU3JQ9ALBtdVmYqs8-2" vertex="1">
          <mxGeometry x="4558" y="133.25" width="120" height="30" as="geometry" />
        </mxCell>
        <mxCell id="qREnHcIWzKFSj_NXQFuH-10" value="Оплата покупок" style="points=[[0.25,0,0],[0.5,0,0],[0.75,0,0],[1,0.25,0],[1,0.5,0],[1,0.75,0],[0.75,1,0],[0.5,1,0],[0.25,1,0],[0,0.75,0],[0,0.5,0],[0,0.25,0]];shape=mxgraph.bpmn.task;whiteSpace=wrap;rectStyle=rounded;size=10;html=1;container=1;expand=0;collapsible=0;taskMarker=abstract;fillColor=#cce5ff;strokeColor=#36393d;" parent="-15vU3JQ9ALBtdVmYqs8-2" vertex="1">
          <mxGeometry x="2755" y="69" width="120" height="80" as="geometry" />
        </mxCell>
        <mxCell id="qREnHcIWzKFSj_NXQFuH-15" value="" style="points=[[0.145,0.145,0],[0.5,0,0],[0.855,0.145,0],[1,0.5,0],[0.855,0.855,0],[0.5,1,0],[0.145,0.855,0],[0,0.5,0]];shape=mxgraph.bpmn.event;html=1;verticalLabelPosition=bottom;labelBackgroundColor=#ffffff;verticalAlign=top;align=center;perimeter=ellipsePerimeter;outlineConnect=0;aspect=fixed;outline=end;symbol=terminate2;fillColor=#ffcccc;strokeColor=#36393d;" parent="-15vU3JQ9ALBtdVmYqs8-2" vertex="1">
          <mxGeometry x="3264" y="61.5" width="50" height="50" as="geometry" />
        </mxCell>
        <mxCell id="qREnHcIWzKFSj_NXQFuH-16" value="Покинуть магазин&lt;div&gt;или&lt;/div&gt;&lt;div&gt;выйти из сайта&lt;/div&gt;" style="text;html=1;align=center;verticalAlign=middle;resizable=0;points=[];autosize=1;strokeColor=none;fillColor=none;" parent="-15vU3JQ9ALBtdVmYqs8-2" vertex="1">
          <mxGeometry x="3229" y="134" width="120" height="60" as="geometry" />
        </mxCell>
        <mxCell id="qREnHcIWzKFSj_NXQFuH-20" value="Оплата покупок" style="points=[[0.25,0,0],[0.5,0,0],[0.75,0,0],[1,0.25,0],[1,0.5,0],[1,0.75,0],[0.75,1,0],[0.5,1,0],[0.25,1,0],[0,0.75,0],[0,0.5,0],[0,0.25,0]];shape=mxgraph.bpmn.task;whiteSpace=wrap;rectStyle=rounded;size=10;html=1;container=1;expand=0;collapsible=0;taskMarker=abstract;fillColor=#cce5ff;strokeColor=#36393d;" parent="-15vU3JQ9ALBtdVmYqs8-2" vertex="1">
          <mxGeometry x="3449" y="67.5" width="120" height="80" as="geometry" />
        </mxCell>
        <mxCell id="qREnHcIWzKFSj_NXQFuH-28" value="Оплата покупок" style="points=[[0.25,0,0],[0.5,0,0],[0.75,0,0],[1,0.25,0],[1,0.5,0],[1,0.75,0],[0.75,1,0],[0.5,1,0],[0.25,1,0],[0,0.75,0],[0,0.5,0],[0,0.25,0]];shape=mxgraph.bpmn.task;whiteSpace=wrap;rectStyle=rounded;size=10;html=1;container=1;expand=0;collapsible=0;taskMarker=abstract;fillColor=#cce5ff;strokeColor=#36393d;" parent="-15vU3JQ9ALBtdVmYqs8-2" vertex="1">
          <mxGeometry x="1315" y="69" width="120" height="80" as="geometry" />
        </mxCell>
        <mxCell id="sC0kVVaJWofNKM2OYiN2-83" value="Получение уведомления о подарке" style="text;html=1;align=center;verticalAlign=middle;resizable=0;points=[];autosize=1;strokeColor=none;fillColor=none;" parent="-15vU3JQ9ALBtdVmYqs8-2" vertex="1">
          <mxGeometry x="4512" y="26.75" width="220" height="30" as="geometry" />
        </mxCell>
        <mxCell id="sC0kVVaJWofNKM2OYiN2-86" value="Получение подарка и заказа" style="text;html=1;align=center;verticalAlign=middle;resizable=0;points=[];autosize=1;strokeColor=none;fillColor=none;" parent="-15vU3JQ9ALBtdVmYqs8-2" vertex="1">
          <mxGeometry x="4818" y="134.5" width="180" height="30" as="geometry" />
        </mxCell>
        <mxCell id="LRNG2-hjTM81aMbg7SDK-6" style="edgeStyle=orthogonalEdgeStyle;rounded=0;orthogonalLoop=1;jettySize=auto;html=1;entryX=0;entryY=0.5;entryDx=0;entryDy=0;entryPerimeter=0;" parent="-15vU3JQ9ALBtdVmYqs8-1" source="-15vU3JQ9ALBtdVmYqs8-10" target="-15vU3JQ9ALBtdVmYqs8-11" edge="1">
          <mxGeometry relative="1" as="geometry">
            <mxPoint x="480" y="95" as="targetPoint" />
          </mxGeometry>
        </mxCell>
        <mxCell id="LRNG2-hjTM81aMbg7SDK-21" style="edgeStyle=orthogonalEdgeStyle;rounded=0;orthogonalLoop=1;jettySize=auto;html=1;" parent="-15vU3JQ9ALBtdVmYqs8-1" source="-15vU3JQ9ALBtdVmYqs8-17" target="-15vU3JQ9ALBtdVmYqs8-12" edge="1">
          <mxGeometry relative="1" as="geometry" />
        </mxCell>
        <mxCell id="-15vU3JQ9ALBtdVmYqs8-3" value="Клиентский сервис" style="swimlane;html=1;startSize=20;horizontal=0;" parent="-15vU3JQ9ALBtdVmYqs8-1" vertex="1">
          <mxGeometry y="230" width="5170" height="330" as="geometry" />
        </mxCell>
        <mxCell id="-15vU3JQ9ALBtdVmYqs8-12" value="Согласование списка с клиентским сервисом&lt;span style=&quot;color: rgba(0, 0, 0, 0); font-family: monospace; font-size: 0px; text-align: start; text-wrap: nowrap;&quot;&gt;%3CmxGraphModel%3E%3Croot%3E%3CmxCell%20id%3D%220%22%2F%3E%3CmxCell%20id%3D%221%22%20parent%3D%220%22%2F%3E%3CmxCell%20id%3D%222%22%20value%3D%22%D0%9A%D0%BB%D0%B8%D0%B5%D0%BD%D1%82%20%D1%81%D0%BE%D0%B2%D0%B5%D1%80%D1%88%D0%B0%D0%B5%D1%82%20%D0%BF%D0%BE%D0%BA%D1%83%D0%BF%D0%BA%D1%83%20%D1%82%D0%BE%D0%B2%D0%B0%D1%80%D0%BE%D0%B2%22%20style%3D%22points%3D%5B%5B0.25%2C0%2C0%5D%2C%5B0.5%2C0%2C0%5D%2C%5B0.75%2C0%2C0%5D%2C%5B1%2C0.25%2C0%5D%2C%5B1%2C0.5%2C0%5D%2C%5B1%2C0.75%2C0%5D%2C%5B0.75%2C1%2C0%5D%2C%5B0.5%2C1%2C0%5D%2C%5B0.25%2C1%2C0%5D%2C%5B0%2C0.75%2C0%5D%2C%5B0%2C0.5%2C0%5D%2C%5B0%2C0.25%2C0%5D%5D%3Bshape%3Dmxgraph.bpmn.task%3BwhiteSpace%3Dwrap%3BrectStyle%3Drounded%3Bsize%3D10%3Bhtml%3D1%3Bcontainer%3D1%3Bexpand%3D0%3Bcollapsible%3D0%3BtaskMarker%3Dabstract%3B%22%20vertex%3D%221%22%20parent%3D%221%22%3E%3CmxGeometry%20x%3D%22250%22%20y%3D%22610%22%20width%3D%22120%22%20height%3D%2280%22%20as%3D%22geometry%22%2F%3E%3C%2FmxCell%3E%3C%2Froot%3E%3C%2FmxGraphModel%3E&lt;/span&gt;&lt;span style=&quot;color: rgba(0, 0, 0, 0); font-family: monospace; font-size: 0px; text-align: start; text-wrap: nowrap;&quot;&gt;%3CmxGraphModel%3E%3Croot%3E%3CmxCell%20id%3D%220%22%2F%3E%3CmxCell%20id%3D%221%22%20parent%3D%220%22%2F%3E%3CmxCell%20id%3D%222%22%20value%3D%22%D0%9A%D0%BB%D0%B8%D0%B5%D0%BD%D1%82%20%D1%81%D0%BE%D0%B2%D0%B5%D1%80%D1%88%D0%B0%D0%B5%D1%82%20%D0%BF%D0%BE%D0%BA%D1%83%D0%BF%D0%BA%D1%83%20%D1%82%D0%BE%D0%B2%D0%B0%D1%80%D0%BE%D0%B2%22%20style%3D%22points%3D%5B%5B0.25%2C0%2C0%5D%2C%5B0.5%2C0%2C0%5D%2C%5B0.75%2C0%2C0%5D%2C%5B1%2C0.25%2C0%5D%2C%5B1%2C0.5%2C0%5D%2C%5B1%2C0.75%2C0%5D%2C%5B0.75%2C1%2C0%5D%2C%5B0.5%2C1%2C0%5D%2C%5B0.25%2C1%2C0%5D%2C%5B0%2C0.75%2C0%5D%2C%5B0%2C0.5%2C0%5D%2C%5B0%2C0.25%2C0%5D%5D%3Bshape%3Dmxgraph.bpmn.task%3BwhiteSpace%3Dwrap%3BrectStyle%3Drounded%3Bsize%3D10%3Bhtml%3D1%3Bcontainer%3D1%3Bexpand%3D0%3Bcollapsible%3D0%3BtaskMarker%3Dabstract%3B%22%20vertex%3D%221%22%20parent%3D%221%22%3E%3CmxGeometry%20x%3D%22250%22%20y%3D%22610%22%20width%3D%22120%22%20height%3D%2280%22%20as%3D%22geometry%22%2F%3E%3C%2FmxCell%3E%3C%2Froot%3E%3C%2FmxGraphModel%3E&lt;/span&gt;" style="points=[[0.25,0,0],[0.5,0,0],[0.75,0,0],[1,0.25,0],[1,0.5,0],[1,0.75,0],[0.75,1,0],[0.5,1,0],[0.25,1,0],[0,0.75,0],[0,0.5,0],[0,0.25,0]];shape=mxgraph.bpmn.task;whiteSpace=wrap;rectStyle=rounded;size=10;html=1;container=1;expand=0;collapsible=0;taskMarker=abstract;fillColor=#cce5ff;strokeColor=#36393d;" parent="-15vU3JQ9ALBtdVmYqs8-3" vertex="1">
          <mxGeometry x="2173" y="120" width="120" height="80" as="geometry" />
        </mxCell>
        <mxCell id="-15vU3JQ9ALBtdVmYqs8-32" value="Список утвержден" style="points=[[0.25,0,0],[0.5,0,0],[0.75,0,0],[1,0.25,0],[1,0.5,0],[1,0.75,0],[0.75,1,0],[0.5,1,0],[0.25,1,0],[0,0.75,0],[0,0.5,0],[0,0.25,0]];shape=mxgraph.bpmn.task;whiteSpace=wrap;rectStyle=rounded;size=10;html=1;container=1;expand=0;collapsible=0;taskMarker=abstract;fillColor=#cce5ff;strokeColor=#36393d;" parent="-15vU3JQ9ALBtdVmYqs8-3" vertex="1">
          <mxGeometry x="2573" y="40" width="120" height="80" as="geometry" />
        </mxCell>
        <mxCell id="-15vU3JQ9ALBtdVmYqs8-33" value="В список участников акции не внесен" style="points=[[0.25,0,0],[0.5,0,0],[0.75,0,0],[1,0.25,0],[1,0.5,0],[1,0.75,0],[0.75,1,0],[0.5,1,0],[0.25,1,0],[0,0.75,0],[0,0.5,0],[0,0.25,0]];shape=mxgraph.bpmn.task;whiteSpace=wrap;rectStyle=rounded;size=10;html=1;container=1;expand=0;collapsible=0;taskMarker=abstract;fillColor=#cce5ff;strokeColor=#36393d;" parent="-15vU3JQ9ALBtdVmYqs8-3" vertex="1">
          <mxGeometry x="2573" y="200" width="120" height="80" as="geometry" />
        </mxCell>
        <mxCell id="LRNG2-hjTM81aMbg7SDK-25" style="edgeStyle=orthogonalEdgeStyle;rounded=0;orthogonalLoop=1;jettySize=auto;html=1;entryX=0;entryY=0.5;entryDx=0;entryDy=0;entryPerimeter=0;exitX=0.5;exitY=0;exitDx=0;exitDy=0;exitPerimeter=0;" parent="-15vU3JQ9ALBtdVmYqs8-3" source="sC0kVVaJWofNKM2OYiN2-60" target="-15vU3JQ9ALBtdVmYqs8-32" edge="1">
          <mxGeometry relative="1" as="geometry">
            <mxPoint x="2418" y="135" as="sourcePoint" />
          </mxGeometry>
        </mxCell>
        <mxCell id="LRNG2-hjTM81aMbg7SDK-26" style="edgeStyle=orthogonalEdgeStyle;rounded=0;orthogonalLoop=1;jettySize=auto;html=1;entryX=0;entryY=0.5;entryDx=0;entryDy=0;entryPerimeter=0;exitX=0.5;exitY=1;exitDx=0;exitDy=0;exitPerimeter=0;" parent="-15vU3JQ9ALBtdVmYqs8-3" source="sC0kVVaJWofNKM2OYiN2-60" target="-15vU3JQ9ALBtdVmYqs8-33" edge="1">
          <mxGeometry relative="1" as="geometry">
            <mxPoint x="2418" y="185" as="sourcePoint" />
          </mxGeometry>
        </mxCell>
        <mxCell id="LRNG2-hjTM81aMbg7SDK-27" style="edgeStyle=orthogonalEdgeStyle;rounded=0;orthogonalLoop=1;jettySize=auto;html=1;entryX=0;entryY=0.5;entryDx=0;entryDy=0;entryPerimeter=0;" parent="-15vU3JQ9ALBtdVmYqs8-3" source="-15vU3JQ9ALBtdVmYqs8-12" edge="1">
          <mxGeometry relative="1" as="geometry">
            <mxPoint x="2393" y="160" as="targetPoint" />
          </mxGeometry>
        </mxCell>
        <mxCell id="sC0kVVaJWofNKM2OYiN2-59" value="Не согласовано" style="text;html=1;align=center;verticalAlign=middle;resizable=0;points=[];autosize=1;strokeColor=none;fillColor=none;" parent="-15vU3JQ9ALBtdVmYqs8-3" vertex="1">
          <mxGeometry x="2419" y="218" width="110" height="30" as="geometry" />
        </mxCell>
        <mxCell id="sC0kVVaJWofNKM2OYiN2-60" value="" style="points=[[0.25,0.25,0],[0.5,0,0],[0.75,0.25,0],[1,0.5,0],[0.75,0.75,0],[0.5,1,0],[0.25,0.75,0],[0,0.5,0]];shape=mxgraph.bpmn.gateway2;html=1;verticalLabelPosition=bottom;labelBackgroundColor=#ffffff;verticalAlign=top;align=center;perimeter=rhombusPerimeter;outlineConnect=0;outline=none;symbol=none;gwType=exclusive;fillColor=#ffff88;strokeColor=#36393d;" parent="-15vU3JQ9ALBtdVmYqs8-3" vertex="1">
          <mxGeometry x="2394" y="135" width="50" height="50" as="geometry" />
        </mxCell>
        <mxCell id="sC0kVVaJWofNKM2OYiN2-61" value="Эсклюзивный шлюз" style="text;html=1;align=center;verticalAlign=middle;resizable=0;points=[];autosize=1;strokeColor=none;fillColor=none;" parent="-15vU3JQ9ALBtdVmYqs8-3" vertex="1">
          <mxGeometry x="2449" y="145" width="130" height="30" as="geometry" />
        </mxCell>
        <mxCell id="LRNG2-hjTM81aMbg7SDK-20" style="edgeStyle=orthogonalEdgeStyle;rounded=0;orthogonalLoop=1;jettySize=auto;html=1;entryX=1;entryY=0.5;entryDx=0;entryDy=0;entryPerimeter=0;exitX=0.5;exitY=0;exitDx=0;exitDy=0;exitPerimeter=0;" parent="-15vU3JQ9ALBtdVmYqs8-1" source="-15vU3JQ9ALBtdVmYqs8-28" target="-15vU3JQ9ALBtdVmYqs8-26" edge="1">
          <mxGeometry relative="1" as="geometry" />
        </mxCell>
        <mxCell id="LRNG2-hjTM81aMbg7SDK-28" style="edgeStyle=orthogonalEdgeStyle;rounded=0;orthogonalLoop=1;jettySize=auto;html=1;entryX=0.5;entryY=0;entryDx=0;entryDy=0;entryPerimeter=0;exitX=0.5;exitY=0;exitDx=0;exitDy=0;exitPerimeter=0;" parent="-15vU3JQ9ALBtdVmYqs8-1" source="-15vU3JQ9ALBtdVmYqs8-32" target="qREnHcIWzKFSj_NXQFuH-20" edge="1">
          <mxGeometry relative="1" as="geometry">
            <mxPoint x="3726" y="310" as="sourcePoint" />
            <mxPoint x="3886" y="645" as="targetPoint" />
          </mxGeometry>
        </mxCell>
        <mxCell id="qREnHcIWzKFSj_NXQFuH-11" style="edgeStyle=orthogonalEdgeStyle;rounded=0;orthogonalLoop=1;jettySize=auto;html=1;entryX=0.5;entryY=1;entryDx=0;entryDy=0;entryPerimeter=0;exitX=1;exitY=0.5;exitDx=0;exitDy=0;exitPerimeter=0;" parent="-15vU3JQ9ALBtdVmYqs8-1" source="-15vU3JQ9ALBtdVmYqs8-33" target="qREnHcIWzKFSj_NXQFuH-10" edge="1">
          <mxGeometry relative="1" as="geometry">
            <mxPoint x="2926" y="470" as="sourcePoint" />
          </mxGeometry>
        </mxCell>
        <mxCell id="qREnHcIWzKFSj_NXQFuH-12" style="edgeStyle=orthogonalEdgeStyle;rounded=0;orthogonalLoop=1;jettySize=auto;html=1;entryX=0.5;entryY=0;entryDx=0;entryDy=0;entryPerimeter=0;" parent="-15vU3JQ9ALBtdVmYqs8-1" source="qREnHcIWzKFSj_NXQFuH-10" target="qREnHcIWzKFSj_NXQFuH-5" edge="1">
          <mxGeometry relative="1" as="geometry" />
        </mxCell>
        <mxCell id="qREnHcIWzKFSj_NXQFuH-19" style="edgeStyle=orthogonalEdgeStyle;rounded=0;orthogonalLoop=1;jettySize=auto;html=1;entryX=0.5;entryY=0;entryDx=0;entryDy=0;entryPerimeter=0;exitX=1;exitY=0.5;exitDx=0;exitDy=0;exitPerimeter=0;" parent="-15vU3JQ9ALBtdVmYqs8-1" source="qREnHcIWzKFSj_NXQFuH-20" target="-15vU3JQ9ALBtdVmYqs8-39" edge="1">
          <mxGeometry relative="1" as="geometry" />
        </mxCell>
        <mxCell id="qREnHcIWzKFSj_NXQFuH-33" style="edgeStyle=orthogonalEdgeStyle;rounded=0;orthogonalLoop=1;jettySize=auto;html=1;entryX=0;entryY=0.5;entryDx=0;entryDy=0;entryPerimeter=0;exitX=0;exitY=0.5;exitDx=0;exitDy=0;exitPerimeter=0;" parent="-15vU3JQ9ALBtdVmYqs8-1" source="sC0kVVaJWofNKM2OYiN2-3" target="qREnHcIWzKFSj_NXQFuH-28" edge="1">
          <mxGeometry relative="1" as="geometry" />
        </mxCell>
        <mxCell id="qREnHcIWzKFSj_NXQFuH-34" style="edgeStyle=orthogonalEdgeStyle;rounded=0;orthogonalLoop=1;jettySize=auto;html=1;entryX=0.5;entryY=0;entryDx=0;entryDy=0;entryPerimeter=0;" parent="-15vU3JQ9ALBtdVmYqs8-1" source="qREnHcIWzKFSj_NXQFuH-28" target="qREnHcIWzKFSj_NXQFuH-30" edge="1">
          <mxGeometry relative="1" as="geometry" />
        </mxCell>
        <mxCell id="qREnHcIWzKFSj_NXQFuH-47" style="edgeStyle=orthogonalEdgeStyle;rounded=0;orthogonalLoop=1;jettySize=auto;html=1;entryX=1;entryY=0.5;entryDx=0;entryDy=0;entryPerimeter=0;exitX=0.5;exitY=0;exitDx=0;exitDy=0;exitPerimeter=0;" parent="-15vU3JQ9ALBtdVmYqs8-1" source="qREnHcIWzKFSj_NXQFuH-40" target="qREnHcIWzKFSj_NXQFuH-15" edge="1">
          <mxGeometry relative="1" as="geometry" />
        </mxCell>
        <mxCell id="qREnHcIWzKFSj_NXQFuH-56" style="edgeStyle=orthogonalEdgeStyle;rounded=0;orthogonalLoop=1;jettySize=auto;html=1;exitX=0.5;exitY=0;exitDx=0;exitDy=0;exitPerimeter=0;entryX=0.472;entryY=1.107;entryDx=0;entryDy=0;entryPerimeter=0;dashed=1;dashPattern=8 8;" parent="-15vU3JQ9ALBtdVmYqs8-1" source="qREnHcIWzKFSj_NXQFuH-61" target="qREnHcIWzKFSj_NXQFuH-2" edge="1">
          <mxGeometry relative="1" as="geometry" />
        </mxCell>
        <mxCell id="-15vU3JQ9ALBtdVmYqs8-4" value="CRM-система" style="swimlane;html=1;startSize=20;horizontal=0;" parent="-15vU3JQ9ALBtdVmYqs8-1" vertex="1">
          <mxGeometry y="560" width="5170" height="510" as="geometry" />
        </mxCell>
        <mxCell id="qREnHcIWzKFSj_NXQFuH-39" style="edgeStyle=orthogonalEdgeStyle;rounded=0;orthogonalLoop=1;jettySize=auto;html=1;entryX=0.5;entryY=0.577;entryDx=0;entryDy=0;entryPerimeter=0;dashed=1;" parent="-15vU3JQ9ALBtdVmYqs8-4" source="qREnHcIWzKFSj_NXQFuH-5" target="qREnHcIWzKFSj_NXQFuH-6" edge="1">
          <mxGeometry relative="1" as="geometry" />
        </mxCell>
        <mxCell id="-15vU3JQ9ALBtdVmYqs8-11" value="CRM-ситема проверяет выполнения условий акции" style="points=[[0.25,0,0],[0.5,0,0],[0.75,0,0],[1,0.25,0],[1,0.5,0],[1,0.75,0],[0.75,1,0],[0.5,1,0],[0.25,1,0],[0,0.75,0],[0,0.5,0],[0,0.25,0]];shape=mxgraph.bpmn.task;whiteSpace=wrap;rectStyle=rounded;size=10;html=1;container=1;expand=0;collapsible=0;taskMarker=abstract;fillColor=#cce5ff;strokeColor=#36393d;" parent="-15vU3JQ9ALBtdVmYqs8-4" vertex="1">
          <mxGeometry x="480" y="70" width="120" height="80" as="geometry" />
        </mxCell>
        <mxCell id="LRNG2-hjTM81aMbg7SDK-7" style="edgeStyle=orthogonalEdgeStyle;rounded=0;orthogonalLoop=1;jettySize=auto;html=1;entryX=0;entryY=0.5;entryDx=0;entryDy=0;entryPerimeter=0;" parent="-15vU3JQ9ALBtdVmYqs8-4" source="-15vU3JQ9ALBtdVmYqs8-11" edge="1">
          <mxGeometry relative="1" as="geometry">
            <mxPoint x="700" y="109.99999999999977" as="targetPoint" />
          </mxGeometry>
        </mxCell>
        <mxCell id="LRNG2-hjTM81aMbg7SDK-13" style="edgeStyle=orthogonalEdgeStyle;rounded=0;orthogonalLoop=1;jettySize=auto;html=1;entryX=0;entryY=0.5;entryDx=0;entryDy=0;entryPerimeter=0;exitX=0.5;exitY=0;exitDx=0;exitDy=0;exitPerimeter=0;" parent="-15vU3JQ9ALBtdVmYqs8-4" source="sC0kVVaJWofNKM2OYiN2-56" target="-15vU3JQ9ALBtdVmYqs8-17" edge="1">
          <mxGeometry relative="1" as="geometry">
            <mxPoint x="736" y="86" as="sourcePoint" />
            <mxPoint x="1050" y="40" as="targetPoint" />
          </mxGeometry>
        </mxCell>
        <mxCell id="LRNG2-hjTM81aMbg7SDK-11" style="edgeStyle=orthogonalEdgeStyle;rounded=0;orthogonalLoop=1;jettySize=auto;html=1;entryX=0.5;entryY=0;entryDx=0;entryDy=0;entryPerimeter=0;exitX=1;exitY=0.5;exitDx=0;exitDy=0;exitPerimeter=0;" parent="-15vU3JQ9ALBtdVmYqs8-4" target="sC0kVVaJWofNKM2OYiN2-3" edge="1">
          <mxGeometry relative="1" as="geometry">
            <mxPoint x="750" y="109.99999999999977" as="sourcePoint" />
            <mxPoint x="1110" y="280" as="targetPoint" />
          </mxGeometry>
        </mxCell>
        <mxCell id="-15vU3JQ9ALBtdVmYqs8-17" value="CRM-ситема добавляет&amp;nbsp; клиента в список участников акции" style="points=[[0.25,0,0],[0.5,0,0],[0.75,0,0],[1,0.25,0],[1,0.5,0],[1,0.75,0],[0.75,1,0],[0.5,1,0],[0.25,1,0],[0,0.75,0],[0,0.5,0],[0,0.25,0]];shape=mxgraph.bpmn.task;whiteSpace=wrap;rectStyle=rounded;size=10;html=1;container=1;expand=0;collapsible=0;taskMarker=abstract;fillColor=#cce5ff;strokeColor=#36393d;" parent="-15vU3JQ9ALBtdVmYqs8-4" vertex="1">
          <mxGeometry x="2173" width="120" height="80" as="geometry" />
        </mxCell>
        <mxCell id="-15vU3JQ9ALBtdVmYqs8-28" value="Оформление заказа с доставкой через сайт" style="points=[[0.25,0,0],[0.5,0,0],[0.75,0,0],[1,0.25,0],[1,0.5,0],[1,0.75,0],[0.75,1,0],[0.5,1,0],[0.25,1,0],[0,0.75,0],[0,0.5,0],[0,0.25,0]];shape=mxgraph.bpmn.task;whiteSpace=wrap;rectStyle=rounded;size=10;html=1;container=1;expand=0;collapsible=0;taskMarker=abstract;fillColor=#cce5ff;strokeColor=#36393d;" parent="-15vU3JQ9ALBtdVmYqs8-4" vertex="1">
          <mxGeometry x="1931" y="265" width="120" height="80" as="geometry" />
        </mxCell>
        <mxCell id="LRNG2-hjTM81aMbg7SDK-18" style="edgeStyle=orthogonalEdgeStyle;rounded=0;orthogonalLoop=1;jettySize=auto;html=1;entryX=0.5;entryY=1;entryDx=0;entryDy=0;entryPerimeter=0;exitX=1;exitY=0.5;exitDx=0;exitDy=0;exitPerimeter=0;" parent="-15vU3JQ9ALBtdVmYqs8-4" source="sC0kVVaJWofNKM2OYiN2-3" target="-15vU3JQ9ALBtdVmYqs8-28" edge="1">
          <mxGeometry relative="1" as="geometry">
            <mxPoint x="1123.96" y="305.03999999999996" as="sourcePoint" />
            <mxPoint x="1530" y="360" as="targetPoint" />
          </mxGeometry>
        </mxCell>
        <mxCell id="LRNG2-hjTM81aMbg7SDK-32" value="" style="edgeStyle=orthogonalEdgeStyle;rounded=0;orthogonalLoop=1;jettySize=auto;html=1;entryX=0.523;entryY=0.563;entryDx=0;entryDy=0;entryPerimeter=0;dashed=1;" parent="-15vU3JQ9ALBtdVmYqs8-4" target="-15vU3JQ9ALBtdVmYqs8-40" edge="1">
          <mxGeometry relative="1" as="geometry">
            <mxPoint x="3684" y="165" as="sourcePoint" />
          </mxGeometry>
        </mxCell>
        <mxCell id="-15vU3JQ9ALBtdVmYqs8-39" value="Записать данные о покупке и утвержденном списке участников в базу данных" style="points=[[0.25,0,0],[0.5,0,0],[0.75,0,0],[1,0.25,0],[1,0.5,0],[1,0.75,0],[0.75,1,0],[0.5,1,0],[0.25,1,0],[0,0.75,0],[0,0.5,0],[0,0.25,0]];shape=mxgraph.bpmn.task;whiteSpace=wrap;rectStyle=rounded;size=10;html=1;container=1;expand=0;collapsible=0;taskMarker=abstract;fillColor=#cce5ff;strokeColor=#36393d;" parent="-15vU3JQ9ALBtdVmYqs8-4" vertex="1">
          <mxGeometry x="3622" y="85" width="120" height="80" as="geometry" />
        </mxCell>
        <mxCell id="-15vU3JQ9ALBtdVmYqs8-40" value="" style="shape=datastore;html=1;labelPosition=center;verticalLabelPosition=bottom;align=center;verticalAlign=top;fillColor=#eeeeee;strokeColor=#36393d;" parent="-15vU3JQ9ALBtdVmYqs8-4" vertex="1">
          <mxGeometry x="3632" y="220" width="100" height="100" as="geometry" />
        </mxCell>
        <mxCell id="-15vU3JQ9ALBtdVmYqs8-41" value="БД" style="text;html=1;align=center;verticalAlign=middle;resizable=0;points=[];autosize=1;strokeColor=none;fillColor=none;" parent="-15vU3JQ9ALBtdVmYqs8-4" vertex="1">
          <mxGeometry x="3664" y="280" width="40" height="30" as="geometry" />
        </mxCell>
        <mxCell id="sC0kVVaJWofNKM2OYiN2-3" value="" style="points=[[0.25,0.25,0],[0.5,0,0],[0.75,0.25,0],[1,0.5,0],[0.75,0.75,0],[0.5,1,0],[0.25,0.75,0],[0,0.5,0]];shape=mxgraph.bpmn.gateway2;html=1;verticalLabelPosition=bottom;labelBackgroundColor=#ffffff;verticalAlign=top;align=center;perimeter=rhombusPerimeter;outlineConnect=0;outline=none;symbol=none;gwType=exclusive;fillColor=#ffff88;strokeColor=#36393d;" parent="-15vU3JQ9ALBtdVmYqs8-4" vertex="1">
          <mxGeometry x="1086" y="371" width="50" height="50" as="geometry" />
        </mxCell>
        <mxCell id="sC0kVVaJWofNKM2OYiN2-67" style="edgeStyle=orthogonalEdgeStyle;rounded=0;orthogonalLoop=1;jettySize=auto;html=1;entryX=0;entryY=0.5;entryDx=0;entryDy=0;entryPerimeter=0;" parent="-15vU3JQ9ALBtdVmYqs8-4" source="sC0kVVaJWofNKM2OYiN2-5" target="-15vU3JQ9ALBtdVmYqs8-36" edge="1">
          <mxGeometry relative="1" as="geometry">
            <mxPoint x="4362" y="124.99999999999977" as="targetPoint" />
          </mxGeometry>
        </mxCell>
        <mxCell id="sC0kVVaJWofNKM2OYiN2-5" value="" style="points=[[0.25,0.25,0],[0.5,0,0],[0.75,0.25,0],[1,0.5,0],[0.75,0.75,0],[0.5,1,0],[0.25,0.75,0],[0,0.5,0]];shape=mxgraph.bpmn.gateway2;html=1;verticalLabelPosition=bottom;labelBackgroundColor=#ffffff;verticalAlign=top;align=center;perimeter=rhombusPerimeter;outlineConnect=0;outline=none;symbol=none;gwType=exclusive;fillColor=#ffff88;strokeColor=#36393d;" parent="-15vU3JQ9ALBtdVmYqs8-4" vertex="1">
          <mxGeometry x="3826" y="100" width="50" height="50" as="geometry" />
        </mxCell>
        <mxCell id="sC0kVVaJWofNKM2OYiN2-55" value="Эсклюзивный шлюз" style="text;html=1;align=center;verticalAlign=middle;resizable=0;points=[];autosize=1;strokeColor=none;fillColor=none;" parent="-15vU3JQ9ALBtdVmYqs8-4" vertex="1">
          <mxGeometry x="3876" y="150" width="130" height="30" as="geometry" />
        </mxCell>
        <mxCell id="sC0kVVaJWofNKM2OYiN2-2" value="Условие не выполнено" style="text;html=1;align=center;verticalAlign=middle;resizable=0;points=[];autosize=1;strokeColor=none;fillColor=none;" parent="-15vU3JQ9ALBtdVmYqs8-4" vertex="1">
          <mxGeometry x="914" y="80" width="150" height="30" as="geometry" />
        </mxCell>
        <mxCell id="sC0kVVaJWofNKM2OYiN2-56" value="" style="points=[[0.25,0.25,0],[0.5,0,0],[0.75,0.25,0],[1,0.5,0],[0.75,0.75,0],[0.5,1,0],[0.25,0.75,0],[0,0.5,0]];shape=mxgraph.bpmn.gateway2;html=1;verticalLabelPosition=bottom;labelBackgroundColor=#ffffff;verticalAlign=top;align=center;perimeter=rhombusPerimeter;outlineConnect=0;outline=none;symbol=none;gwType=exclusive;fillColor=#ffff88;strokeColor=#36393d;" parent="-15vU3JQ9ALBtdVmYqs8-4" vertex="1">
          <mxGeometry x="700" y="85" width="50" height="50" as="geometry" />
        </mxCell>
        <mxCell id="sC0kVVaJWofNKM2OYiN2-57" value="Эсклюзивный шлюз" style="text;html=1;align=center;verticalAlign=middle;resizable=0;points=[];autosize=1;strokeColor=none;fillColor=none;" parent="-15vU3JQ9ALBtdVmYqs8-4" vertex="1">
          <mxGeometry x="660" y="150" width="130" height="30" as="geometry" />
        </mxCell>
        <mxCell id="-15vU3JQ9ALBtdVmYqs8-36" value="Оформление заказа с доставкой через сайт" style="points=[[0.25,0,0],[0.5,0,0],[0.75,0,0],[1,0.25,0],[1,0.5,0],[1,0.75,0],[0.75,1,0],[0.5,1,0],[0.25,1,0],[0,0.75,0],[0,0.5,0],[0,0.25,0]];shape=mxgraph.bpmn.task;whiteSpace=wrap;rectStyle=rounded;size=10;html=1;container=1;expand=0;collapsible=0;taskMarker=abstract;fillColor=#cce5ff;strokeColor=#36393d;" parent="-15vU3JQ9ALBtdVmYqs8-4" vertex="1">
          <mxGeometry x="4000" y="85" width="120" height="80" as="geometry" />
        </mxCell>
        <mxCell id="qREnHcIWzKFSj_NXQFuH-5" value="Записать данные о покупке и утвержденном списке участников в базу данных" style="points=[[0.25,0,0],[0.5,0,0],[0.75,0,0],[1,0.25,0],[1,0.5,0],[1,0.75,0],[0.75,1,0],[0.5,1,0],[0.25,1,0],[0,0.75,0],[0,0.5,0],[0,0.25,0]];shape=mxgraph.bpmn.task;whiteSpace=wrap;rectStyle=rounded;size=10;html=1;container=1;expand=0;collapsible=0;taskMarker=abstract;fillColor=#cce5ff;strokeColor=#36393d;" parent="-15vU3JQ9ALBtdVmYqs8-4" vertex="1">
          <mxGeometry x="2879" y="85" width="120" height="80" as="geometry" />
        </mxCell>
        <mxCell id="qREnHcIWzKFSj_NXQFuH-6" value="" style="shape=datastore;html=1;labelPosition=center;verticalLabelPosition=bottom;align=center;verticalAlign=top;fillColor=#eeeeee;strokeColor=#36393d;" parent="-15vU3JQ9ALBtdVmYqs8-4" vertex="1">
          <mxGeometry x="2888" y="220" width="100" height="100" as="geometry" />
        </mxCell>
        <mxCell id="qREnHcIWzKFSj_NXQFuH-7" value="БД" style="text;html=1;align=center;verticalAlign=middle;resizable=0;points=[];autosize=1;strokeColor=none;fillColor=none;" parent="-15vU3JQ9ALBtdVmYqs8-4" vertex="1">
          <mxGeometry x="2918" y="280" width="40" height="30" as="geometry" />
        </mxCell>
        <mxCell id="qREnHcIWzKFSj_NXQFuH-37" style="edgeStyle=orthogonalEdgeStyle;rounded=0;orthogonalLoop=1;jettySize=auto;html=1;entryX=0.52;entryY=0.377;entryDx=0;entryDy=0;dashed=1;entryPerimeter=0;" parent="-15vU3JQ9ALBtdVmYqs8-4" source="qREnHcIWzKFSj_NXQFuH-30" target="qREnHcIWzKFSj_NXQFuH-31" edge="1">
          <mxGeometry relative="1" as="geometry" />
        </mxCell>
        <mxCell id="qREnHcIWzKFSj_NXQFuH-30" value="Записать данные о покупке и утвержденном списке участников в базу данных" style="points=[[0.25,0,0],[0.5,0,0],[0.75,0,0],[1,0.25,0],[1,0.5,0],[1,0.75,0],[0.75,1,0],[0.5,1,0],[0.25,1,0],[0,0.75,0],[0,0.5,0],[0,0.25,0]];shape=mxgraph.bpmn.task;whiteSpace=wrap;rectStyle=rounded;size=10;html=1;container=1;expand=0;collapsible=0;taskMarker=abstract;fillColor=#cce5ff;strokeColor=#36393d;" parent="-15vU3JQ9ALBtdVmYqs8-4" vertex="1">
          <mxGeometry x="1316" y="85" width="120" height="80" as="geometry" />
        </mxCell>
        <mxCell id="qREnHcIWzKFSj_NXQFuH-31" value="" style="shape=datastore;html=1;labelPosition=center;verticalLabelPosition=bottom;align=center;verticalAlign=top;fillColor=#eeeeee;strokeColor=#36393d;" parent="-15vU3JQ9ALBtdVmYqs8-4" vertex="1">
          <mxGeometry x="1325" y="220" width="100" height="100" as="geometry" />
        </mxCell>
        <mxCell id="qREnHcIWzKFSj_NXQFuH-32" value="БД" style="text;html=1;align=center;verticalAlign=middle;resizable=0;points=[];autosize=1;strokeColor=none;fillColor=none;" parent="-15vU3JQ9ALBtdVmYqs8-4" vertex="1">
          <mxGeometry x="1355" y="280" width="40" height="30" as="geometry" />
        </mxCell>
        <mxCell id="sC0kVVaJWofNKM2OYiN2-4" value="Эсклюзивный шлюз" style="text;html=1;align=center;verticalAlign=middle;resizable=0;points=[];autosize=1;strokeColor=none;fillColor=none;" parent="-15vU3JQ9ALBtdVmYqs8-4" vertex="1">
          <mxGeometry x="1046" y="421" width="130" height="30" as="geometry" />
        </mxCell>
        <mxCell id="qREnHcIWzKFSj_NXQFuH-23" value="в магазине" style="text;html=1;align=center;verticalAlign=middle;resizable=0;points=[];autosize=1;strokeColor=none;fillColor=none;" parent="-15vU3JQ9ALBtdVmYqs8-4" vertex="1">
          <mxGeometry x="976" y="360" width="80" height="30" as="geometry" />
        </mxCell>
        <mxCell id="qREnHcIWzKFSj_NXQFuH-22" value="через сайт" style="text;html=1;align=center;verticalAlign=middle;resizable=0;points=[];autosize=1;strokeColor=none;fillColor=none;" parent="-15vU3JQ9ALBtdVmYqs8-4" vertex="1">
          <mxGeometry x="1166" y="360" width="80" height="30" as="geometry" />
        </mxCell>
        <mxCell id="sC0kVVaJWofNKM2OYiN2-1" value="Условие&amp;nbsp; выполнено" style="text;html=1;align=center;verticalAlign=middle;resizable=0;points=[];autosize=1;strokeColor=none;fillColor=none;" parent="-15vU3JQ9ALBtdVmYqs8-4" vertex="1">
          <mxGeometry x="926" y="10" width="140" height="30" as="geometry" />
        </mxCell>
        <mxCell id="qREnHcIWzKFSj_NXQFuH-40" value="Оформление заказа с доставкой через сайт" style="points=[[0.25,0,0],[0.5,0,0],[0.75,0,0],[1,0.25,0],[1,0.5,0],[1,0.75,0],[0.75,1,0],[0.5,1,0],[0.25,1,0],[0,0.75,0],[0,0.5,0],[0,0.25,0]];shape=mxgraph.bpmn.task;whiteSpace=wrap;rectStyle=rounded;size=10;html=1;container=1;expand=0;collapsible=0;taskMarker=abstract;fillColor=#cce5ff;strokeColor=#36393d;" parent="-15vU3JQ9ALBtdVmYqs8-4" vertex="1">
          <mxGeometry x="3336" y="85" width="120" height="80" as="geometry" />
        </mxCell>
        <mxCell id="qREnHcIWzKFSj_NXQFuH-41" value="" style="points=[[0.25,0.25,0],[0.5,0,0],[0.75,0.25,0],[1,0.5,0],[0.75,0.75,0],[0.5,1,0],[0.25,0.75,0],[0,0.5,0]];shape=mxgraph.bpmn.gateway2;html=1;verticalLabelPosition=bottom;labelBackgroundColor=#ffffff;verticalAlign=top;align=center;perimeter=rhombusPerimeter;outlineConnect=0;outline=none;symbol=none;gwType=exclusive;fillColor=#ffff88;strokeColor=#36393d;" parent="-15vU3JQ9ALBtdVmYqs8-4" vertex="1">
          <mxGeometry x="3146" y="100" width="50" height="50" as="geometry" />
        </mxCell>
        <mxCell id="qREnHcIWzKFSj_NXQFuH-42" style="edgeStyle=orthogonalEdgeStyle;rounded=0;orthogonalLoop=1;jettySize=auto;html=1;entryX=0;entryY=0.5;entryDx=0;entryDy=0;entryPerimeter=0;" parent="-15vU3JQ9ALBtdVmYqs8-4" source="qREnHcIWzKFSj_NXQFuH-5" target="qREnHcIWzKFSj_NXQFuH-41" edge="1">
          <mxGeometry relative="1" as="geometry" />
        </mxCell>
        <mxCell id="qREnHcIWzKFSj_NXQFuH-43" style="edgeStyle=orthogonalEdgeStyle;rounded=0;orthogonalLoop=1;jettySize=auto;html=1;entryX=0;entryY=0.5;entryDx=0;entryDy=0;entryPerimeter=0;" parent="-15vU3JQ9ALBtdVmYqs8-4" source="qREnHcIWzKFSj_NXQFuH-41" target="qREnHcIWzKFSj_NXQFuH-40" edge="1">
          <mxGeometry relative="1" as="geometry" />
        </mxCell>
        <mxCell id="qREnHcIWzKFSj_NXQFuH-50" style="edgeStyle=orthogonalEdgeStyle;rounded=0;orthogonalLoop=1;jettySize=auto;html=1;entryX=0;entryY=0.5;entryDx=0;entryDy=0;entryPerimeter=0;" parent="-15vU3JQ9ALBtdVmYqs8-4" source="-15vU3JQ9ALBtdVmYqs8-39" target="sC0kVVaJWofNKM2OYiN2-5" edge="1">
          <mxGeometry relative="1" as="geometry" />
        </mxCell>
        <mxCell id="qREnHcIWzKFSj_NXQFuH-48" value="магазин" style="text;html=1;align=center;verticalAlign=middle;resizable=0;points=[];autosize=1;strokeColor=none;fillColor=none;" parent="-15vU3JQ9ALBtdVmYqs8-4" vertex="1">
          <mxGeometry x="3776" y="170" width="70" height="30" as="geometry" />
        </mxCell>
        <mxCell id="sC0kVVaJWofNKM2OYiN2-87" value="сайт" style="text;html=1;align=center;verticalAlign=middle;resizable=0;points=[];autosize=1;strokeColor=none;fillColor=none;" parent="-15vU3JQ9ALBtdVmYqs8-4" vertex="1">
          <mxGeometry x="3896" y="95" width="50" height="30" as="geometry" />
        </mxCell>
        <mxCell id="qREnHcIWzKFSj_NXQFuH-53" value="" style="points=[[0.25,0.25,0],[0.5,0,0],[0.75,0.25,0],[1,0.5,0],[0.75,0.75,0],[0.5,1,0],[0.25,0.75,0],[0,0.5,0]];shape=mxgraph.bpmn.gateway2;html=1;verticalLabelPosition=bottom;labelBackgroundColor=#ffffff;verticalAlign=top;align=center;perimeter=rhombusPerimeter;outlineConnect=0;outline=none;symbol=none;gwType=parallel;fillColor=#ffff88;strokeColor=#36393d;" parent="-15vU3JQ9ALBtdVmYqs8-4" vertex="1">
          <mxGeometry x="4417" y="100" width="50" height="50" as="geometry" />
        </mxCell>
        <mxCell id="qREnHcIWzKFSj_NXQFuH-54" style="edgeStyle=orthogonalEdgeStyle;rounded=0;orthogonalLoop=1;jettySize=auto;html=1;entryX=0;entryY=0.5;entryDx=0;entryDy=0;entryPerimeter=0;" parent="-15vU3JQ9ALBtdVmYqs8-4" source="-15vU3JQ9ALBtdVmYqs8-36" target="qREnHcIWzKFSj_NXQFuH-53" edge="1">
          <mxGeometry relative="1" as="geometry" />
        </mxCell>
        <mxCell id="qREnHcIWzKFSj_NXQFuH-57" value="Автоматическое формирование запроса на склад" style="points=[[0.25,0,0],[0.5,0,0],[0.75,0,0],[1,0.25,0],[1,0.5,0],[1,0.75,0],[0.75,1,0],[0.5,1,0],[0.25,1,0],[0,0.75,0],[0,0.5,0],[0,0.25,0]];shape=mxgraph.bpmn.task;whiteSpace=wrap;rectStyle=rounded;size=10;html=1;container=1;expand=0;collapsible=0;taskMarker=abstract;fillColor=#cce5ff;strokeColor=#36393d;" parent="-15vU3JQ9ALBtdVmYqs8-4" vertex="1">
          <mxGeometry x="4382" y="291" width="120" height="80" as="geometry" />
        </mxCell>
        <mxCell id="qREnHcIWzKFSj_NXQFuH-58" style="edgeStyle=orthogonalEdgeStyle;rounded=0;orthogonalLoop=1;jettySize=auto;html=1;entryX=0.5;entryY=0;entryDx=0;entryDy=0;entryPerimeter=0;" parent="-15vU3JQ9ALBtdVmYqs8-4" source="qREnHcIWzKFSj_NXQFuH-53" target="qREnHcIWzKFSj_NXQFuH-57" edge="1">
          <mxGeometry relative="1" as="geometry" />
        </mxCell>
        <mxCell id="qREnHcIWzKFSj_NXQFuH-61" value="Автоматическое формирование уведомления о подарке" style="points=[[0.25,0,0],[0.5,0,0],[0.75,0,0],[1,0.25,0],[1,0.5,0],[1,0.75,0],[0.75,1,0],[0.5,1,0],[0.25,1,0],[0,0.75,0],[0,0.5,0],[0,0.25,0]];shape=mxgraph.bpmn.task;whiteSpace=wrap;rectStyle=rounded;size=10;html=1;container=1;expand=0;collapsible=0;taskMarker=abstract;fillColor=#cce5ff;strokeColor=#36393d;" parent="-15vU3JQ9ALBtdVmYqs8-4" vertex="1">
          <mxGeometry x="4555" y="85" width="120" height="80" as="geometry" />
        </mxCell>
        <mxCell id="qREnHcIWzKFSj_NXQFuH-62" style="edgeStyle=orthogonalEdgeStyle;rounded=0;orthogonalLoop=1;jettySize=auto;html=1;entryX=0;entryY=0.5;entryDx=0;entryDy=0;entryPerimeter=0;" parent="-15vU3JQ9ALBtdVmYqs8-4" source="qREnHcIWzKFSj_NXQFuH-53" target="qREnHcIWzKFSj_NXQFuH-61" edge="1">
          <mxGeometry relative="1" as="geometry" />
        </mxCell>
        <mxCell id="qREnHcIWzKFSj_NXQFuH-63" value="Уведомление клиента" style="text;html=1;align=center;verticalAlign=middle;resizable=0;points=[];autosize=1;strokeColor=none;fillColor=none;" parent="-15vU3JQ9ALBtdVmYqs8-4" vertex="1">
          <mxGeometry x="4417" y="70" width="150" height="30" as="geometry" />
        </mxCell>
        <mxCell id="qREnHcIWzKFSj_NXQFuH-67" value="Параллельный шлюз" style="text;html=1;align=center;verticalAlign=middle;resizable=0;points=[];autosize=1;strokeColor=none;fillColor=none;" parent="-15vU3JQ9ALBtdVmYqs8-4" vertex="1">
          <mxGeometry x="4277" y="80" width="140" height="30" as="geometry" />
        </mxCell>
        <mxCell id="qREnHcIWzKFSj_NXQFuH-68" value="/при условиях CRM системы&amp;nbsp;&lt;div&gt;параллельные процессы допустимы,&amp;nbsp;&lt;/div&gt;&lt;div&gt;т.к. они автоматизированы/&lt;/div&gt;" style="text;html=1;align=center;verticalAlign=middle;resizable=0;points=[];autosize=1;strokeColor=none;fillColor=none;" parent="-15vU3JQ9ALBtdVmYqs8-4" vertex="1">
          <mxGeometry x="4226" y="140" width="230" height="60" as="geometry" />
        </mxCell>
        <mxCell id="LRNG2-hjTM81aMbg7SDK-23" value="Сотрудники магазина" style="swimlane;startSize=20;horizontal=0;html=1;whiteSpace=wrap;" parent="1" vertex="1">
          <mxGeometry x="303" y="1201" width="5166" height="238" as="geometry" />
        </mxCell>
        <mxCell id="-15vU3JQ9ALBtdVmYqs8-44" value="Выдать клиенту чек и упаковать покупки" style="points=[[0.25,0,0],[0.5,0,0],[0.75,0,0],[1,0.25,0],[1,0.5,0],[1,0.75,0],[0.75,1,0],[0.5,1,0],[0.25,1,0],[0,0.75,0],[0,0.5,0],[0,0.25,0]];shape=mxgraph.bpmn.task;whiteSpace=wrap;rectStyle=rounded;size=10;html=1;container=1;expand=0;collapsible=0;taskMarker=abstract;fillColor=#cce5ff;strokeColor=#36393d;" parent="LRNG2-hjTM81aMbg7SDK-23" vertex="1">
          <mxGeometry x="1509" y="25" width="120" height="80" as="geometry" />
        </mxCell>
        <mxCell id="-15vU3JQ9ALBtdVmYqs8-45" value="Выдать клиенту чек и упаковать покупки" style="points=[[0.25,0,0],[0.5,0,0],[0.75,0,0],[1,0.25,0],[1,0.5,0],[1,0.75,0],[0.75,1,0],[0.5,1,0],[0.25,1,0],[0,0.75,0],[0,0.5,0],[0,0.25,0]];shape=mxgraph.bpmn.task;whiteSpace=wrap;rectStyle=rounded;size=10;html=1;container=1;expand=0;collapsible=0;taskMarker=abstract;fillColor=#cce5ff;strokeColor=#36393d;" parent="LRNG2-hjTM81aMbg7SDK-23" vertex="1">
          <mxGeometry x="4180" y="50" width="120" height="80" as="geometry" />
        </mxCell>
        <mxCell id="sC0kVVaJWofNKM2OYiN2-68" value="Вручение подарка&amp;nbsp;" style="points=[[0.25,0,0],[0.5,0,0],[0.75,0,0],[1,0.25,0],[1,0.5,0],[1,0.75,0],[0.75,1,0],[0.5,1,0],[0.25,1,0],[0,0.75,0],[0,0.5,0],[0,0.25,0]];shape=mxgraph.bpmn.task;whiteSpace=wrap;rectStyle=rounded;size=10;html=1;container=1;expand=0;collapsible=0;taskMarker=abstract;fillColor=#cce5ff;strokeColor=#36393d;" parent="LRNG2-hjTM81aMbg7SDK-23" vertex="1">
          <mxGeometry x="4003" y="50" width="120" height="80" as="geometry" />
        </mxCell>
        <mxCell id="HeTy7XG2RMJeDuXKdrgO-1" style="edgeStyle=orthogonalEdgeStyle;rounded=0;orthogonalLoop=1;jettySize=auto;html=1;entryX=0;entryY=0.5;entryDx=0;entryDy=0;entryPerimeter=0;" parent="LRNG2-hjTM81aMbg7SDK-23" source="sC0kVVaJWofNKM2OYiN2-68" target="-15vU3JQ9ALBtdVmYqs8-45" edge="1">
          <mxGeometry relative="1" as="geometry" />
        </mxCell>
        <mxCell id="sC0kVVaJWofNKM2OYiN2-63" value="Сотрудник магазина забирает подарок со склада" style="points=[[0.25,0,0],[0.5,0,0],[0.75,0,0],[1,0.25,0],[1,0.5,0],[1,0.75,0],[0.75,1,0],[0.5,1,0],[0.25,1,0],[0,0.75,0],[0,0.5,0],[0,0.25,0]];shape=mxgraph.bpmn.task;whiteSpace=wrap;rectStyle=rounded;size=10;html=1;container=1;expand=0;collapsible=0;taskMarker=abstract;fillColor=#cce5ff;strokeColor=#36393d;" parent="LRNG2-hjTM81aMbg7SDK-23" vertex="1">
          <mxGeometry x="3792" y="50" width="120" height="80" as="geometry" />
        </mxCell>
        <mxCell id="HeTy7XG2RMJeDuXKdrgO-3" style="edgeStyle=orthogonalEdgeStyle;rounded=0;orthogonalLoop=1;jettySize=auto;html=1;entryX=0;entryY=0.5;entryDx=0;entryDy=0;entryPerimeter=0;" parent="LRNG2-hjTM81aMbg7SDK-23" source="sC0kVVaJWofNKM2OYiN2-63" target="sC0kVVaJWofNKM2OYiN2-68" edge="1">
          <mxGeometry relative="1" as="geometry" />
        </mxCell>
        <mxCell id="qREnHcIWzKFSj_NXQFuH-13" value="Выдать клиенту чек и упаковать покупки" style="points=[[0.25,0,0],[0.5,0,0],[0.75,0,0],[1,0.25,0],[1,0.5,0],[1,0.75,0],[0.75,1,0],[0.5,1,0],[0.25,1,0],[0,0.75,0],[0,0.5,0],[0,0.25,0]];shape=mxgraph.bpmn.task;whiteSpace=wrap;rectStyle=rounded;size=10;html=1;container=1;expand=0;collapsible=0;taskMarker=abstract;fillColor=#cce5ff;strokeColor=#36393d;" parent="LRNG2-hjTM81aMbg7SDK-23" vertex="1">
          <mxGeometry x="3112" y="48" width="120" height="80" as="geometry" />
        </mxCell>
        <mxCell id="LRNG2-hjTM81aMbg7SDK-19" style="edgeStyle=orthogonalEdgeStyle;rounded=0;orthogonalLoop=1;jettySize=auto;html=1;exitX=1;exitY=0.5;exitDx=0;exitDy=0;exitPerimeter=0;" parent="1" source="-15vU3JQ9ALBtdVmYqs8-44" target="-15vU3JQ9ALBtdVmYqs8-27" edge="1">
          <mxGeometry relative="1" as="geometry" />
        </mxCell>
        <mxCell id="LRNG2-hjTM81aMbg7SDK-41" style="edgeStyle=orthogonalEdgeStyle;rounded=0;orthogonalLoop=1;jettySize=auto;html=1;exitX=0.5;exitY=0;exitDx=0;exitDy=0;exitPerimeter=0;entryX=0.5;entryY=1.043;entryDx=0;entryDy=0;entryPerimeter=0;" parent="1" source="-15vU3JQ9ALBtdVmYqs8-45" edge="1">
          <mxGeometry relative="1" as="geometry">
            <mxPoint x="4543" y="315.78999999999996" as="targetPoint" />
            <mxPoint x="4542" y="1249" as="sourcePoint" />
          </mxGeometry>
        </mxCell>
        <mxCell id="sC0kVVaJWofNKM2OYiN2-58" value="Согласовано" style="text;html=1;align=center;verticalAlign=middle;resizable=0;points=[];autosize=1;strokeColor=none;fillColor=none;" parent="1" vertex="1">
          <mxGeometry x="2720" y="408" width="100" height="30" as="geometry" />
        </mxCell>
        <mxCell id="sC0kVVaJWofNKM2OYiN2-62" value="Склад, логистика" style="swimlane;startSize=20;horizontal=0;html=1;whiteSpace=wrap;" parent="1" vertex="1">
          <mxGeometry x="304" y="1440" width="5166" height="220" as="geometry" />
        </mxCell>
        <mxCell id="-15vU3JQ9ALBtdVmYqs8-13" value="Подготовка подарка" style="points=[[0.25,0,0],[0.5,0,0],[0.75,0,0],[1,0.25,0],[1,0.5,0],[1,0.75,0],[0.75,1,0],[0.5,1,0],[0.25,1,0],[0,0.75,0],[0,0.5,0],[0,0.25,0]];shape=mxgraph.bpmn.task;whiteSpace=wrap;rectStyle=rounded;size=10;html=1;container=1;expand=0;collapsible=0;taskMarker=abstract;fillColor=#cce5ff;strokeColor=#36393d;" parent="sC0kVVaJWofNKM2OYiN2-62" vertex="1">
          <mxGeometry x="4382" y="32" width="120" height="80" as="geometry" />
        </mxCell>
        <mxCell id="sC0kVVaJWofNKM2OYiN2-65" value="Отправка и доставка подарка" style="points=[[0.25,0,0],[0.5,0,0],[0.75,0,0],[1,0.25,0],[1,0.5,0],[1,0.75,0],[0.75,1,0],[0.5,1,0],[0.25,1,0],[0,0.75,0],[0,0.5,0],[0,0.25,0]];shape=mxgraph.bpmn.task;whiteSpace=wrap;rectStyle=rounded;size=10;html=1;container=1;expand=0;collapsible=0;taskMarker=abstract;fillColor=#cce5ff;strokeColor=#36393d;" parent="sC0kVVaJWofNKM2OYiN2-62" vertex="1">
          <mxGeometry x="4852" y="32" width="120" height="80" as="geometry" />
        </mxCell>
        <mxCell id="sC0kVVaJWofNKM2OYiN2-66" style="edgeStyle=orthogonalEdgeStyle;rounded=0;orthogonalLoop=1;jettySize=auto;html=1;entryX=0;entryY=0.5;entryDx=0;entryDy=0;entryPerimeter=0;" parent="sC0kVVaJWofNKM2OYiN2-62" source="qREnHcIWzKFSj_NXQFuH-65" target="sC0kVVaJWofNKM2OYiN2-65" edge="1">
          <mxGeometry relative="1" as="geometry" />
        </mxCell>
        <mxCell id="qREnHcIWzKFSj_NXQFuH-65" value="Формирование заказа" style="points=[[0.25,0,0],[0.5,0,0],[0.75,0,0],[1,0.25,0],[1,0.5,0],[1,0.75,0],[0.75,1,0],[0.5,1,0],[0.25,1,0],[0,0.75,0],[0,0.5,0],[0,0.25,0]];shape=mxgraph.bpmn.task;whiteSpace=wrap;rectStyle=rounded;size=10;html=1;container=1;expand=0;collapsible=0;taskMarker=abstract;fillColor=#cce5ff;strokeColor=#36393d;" parent="sC0kVVaJWofNKM2OYiN2-62" vertex="1">
          <mxGeometry x="4611" y="32" width="120" height="80" as="geometry" />
        </mxCell>
        <mxCell id="qREnHcIWzKFSj_NXQFuH-66" value="" style="edgeStyle=orthogonalEdgeStyle;rounded=0;orthogonalLoop=1;jettySize=auto;html=1;entryX=0;entryY=0.5;entryDx=0;entryDy=0;entryPerimeter=0;" parent="sC0kVVaJWofNKM2OYiN2-62" source="-15vU3JQ9ALBtdVmYqs8-13" target="qREnHcIWzKFSj_NXQFuH-65" edge="1">
          <mxGeometry relative="1" as="geometry">
            <mxPoint x="4650" y="1540" as="sourcePoint" />
            <mxPoint x="5000" y="1510" as="targetPoint" />
          </mxGeometry>
        </mxCell>
        <mxCell id="sC0kVVaJWofNKM2OYiN2-74" style="edgeStyle=orthogonalEdgeStyle;rounded=0;orthogonalLoop=1;jettySize=auto;html=1;entryX=0.521;entryY=1.079;entryDx=0;entryDy=0;entryPerimeter=0;" parent="1" source="sC0kVVaJWofNKM2OYiN2-65" target="sC0kVVaJWofNKM2OYiN2-86" edge="1">
          <mxGeometry relative="1" as="geometry">
            <mxPoint x="5213" y="330" as="targetPoint" />
          </mxGeometry>
        </mxCell>
        <mxCell id="qREnHcIWzKFSj_NXQFuH-17" style="edgeStyle=orthogonalEdgeStyle;rounded=0;orthogonalLoop=1;jettySize=auto;html=1;exitX=1;exitY=0.5;exitDx=0;exitDy=0;exitPerimeter=0;" parent="1" source="qREnHcIWzKFSj_NXQFuH-13" target="qREnHcIWzKFSj_NXQFuH-16" edge="1">
          <mxGeometry relative="1" as="geometry" />
        </mxCell>
        <mxCell id="qREnHcIWzKFSj_NXQFuH-35" style="edgeStyle=orthogonalEdgeStyle;rounded=0;orthogonalLoop=1;jettySize=auto;html=1;entryX=0.5;entryY=0;entryDx=0;entryDy=0;entryPerimeter=0;" parent="1" source="qREnHcIWzKFSj_NXQFuH-30" target="-15vU3JQ9ALBtdVmYqs8-44" edge="1">
          <mxGeometry relative="1" as="geometry" />
        </mxCell>
        <mxCell id="qREnHcIWzKFSj_NXQFuH-44" style="edgeStyle=orthogonalEdgeStyle;rounded=0;orthogonalLoop=1;jettySize=auto;html=1;entryX=0.5;entryY=0;entryDx=0;entryDy=0;entryPerimeter=0;" parent="1" source="qREnHcIWzKFSj_NXQFuH-41" target="qREnHcIWzKFSj_NXQFuH-13" edge="1">
          <mxGeometry relative="1" as="geometry" />
        </mxCell>
        <mxCell id="qREnHcIWzKFSj_NXQFuH-45" value="сайт" style="text;html=1;align=center;verticalAlign=middle;resizable=0;points=[];autosize=1;strokeColor=none;fillColor=none;" parent="1" vertex="1">
          <mxGeometry x="3505" y="788" width="50" height="30" as="geometry" />
        </mxCell>
        <mxCell id="qREnHcIWzKFSj_NXQFuH-46" value="магазин" style="text;html=1;align=center;verticalAlign=middle;resizable=0;points=[];autosize=1;strokeColor=none;fillColor=none;" parent="1" vertex="1">
          <mxGeometry x="3403" y="918" width="70" height="30" as="geometry" />
        </mxCell>
        <mxCell id="qREnHcIWzKFSj_NXQFuH-51" style="edgeStyle=orthogonalEdgeStyle;rounded=0;orthogonalLoop=1;jettySize=auto;html=1;entryX=0.5;entryY=0;entryDx=0;entryDy=0;entryPerimeter=0;" parent="1" source="sC0kVVaJWofNKM2OYiN2-5" target="sC0kVVaJWofNKM2OYiN2-63" edge="1">
          <mxGeometry relative="1" as="geometry">
            <mxPoint x="4155" y="1150" as="targetPoint" />
          </mxGeometry>
        </mxCell>
        <mxCell id="qREnHcIWzKFSj_NXQFuH-59" style="edgeStyle=orthogonalEdgeStyle;rounded=0;orthogonalLoop=1;jettySize=auto;html=1;entryX=0.5;entryY=0;entryDx=0;entryDy=0;entryPerimeter=0;" parent="1" source="qREnHcIWzKFSj_NXQFuH-57" target="-15vU3JQ9ALBtdVmYqs8-13" edge="1">
          <mxGeometry relative="1" as="geometry" />
        </mxCell>
        <mxCell id="qREnHcIWzKFSj_NXQFuH-60" value="Автоматическое формирование запроса на склад" style="points=[[0.25,0,0],[0.5,0,0],[0.75,0,0],[1,0.25,0],[1,0.5,0],[1,0.75,0],[0.75,1,0],[0.5,1,0],[0.25,1,0],[0,0.75,0],[0,0.5,0],[0,0.25,0]];shape=mxgraph.bpmn.task;whiteSpace=wrap;rectStyle=rounded;size=10;html=1;container=1;expand=0;collapsible=0;taskMarker=abstract;fillColor=#cce5ff;strokeColor=#36393d;" parent="1" vertex="1">
          <mxGeometry x="4686" y="981" width="120" height="80" as="geometry" />
        </mxCell>
        <mxCell id="qREnHcIWzKFSj_NXQFuH-64" value="Уведомление склада" style="text;html=1;align=center;verticalAlign=middle;resizable=0;points=[];autosize=1;strokeColor=none;fillColor=none;" parent="1" vertex="1">
          <mxGeometry x="4739" y="918" width="140" height="30" as="geometry" />
        </mxCell>
      </root>
    </mxGraphModel>
  </diagram>
</mxfile>
